<mxfile host="app.diagrams.net" modified="2022-04-13T08:16:56.925Z" agent="5.0 (Windows NT 10.0; Win64; x64) AppleWebKit/537.36 (KHTML, like Gecko) Chrome/100.0.4896.88 Safari/537.36" etag="8n6JqNCbPzGwVkZBnVF9" version="17.4.3" type="github">
  <diagram id="q2lm2LufPUnqBylVKAs6" name="Page-1">
    <mxGraphModel dx="988" dy="356" grid="1" gridSize="10" guides="1" tooltips="1" connect="1" arrows="1" fold="1" page="1" pageScale="1" pageWidth="827" pageHeight="1169" math="0" shadow="0">
      <root>
        <mxCell id="0" />
        <mxCell id="1" parent="0" />
        <mxCell id="P8LPHrWzFE8qcMjb3-0s-1" value="Computer&lt;br&gt;In AD" style="whiteSpace=wrap;html=1;aspect=fixed;" vertex="1" parent="1">
          <mxGeometry x="150" y="180" width="80" height="80" as="geometry" />
        </mxCell>
        <mxCell id="P8LPHrWzFE8qcMjb3-0s-5" value="IIS wit asp.net app" style="aspect=fixed;perimeter=ellipsePerimeter;html=1;align=center;shadow=0;dashed=0;spacingTop=3;image;image=img/lib/active_directory/web_server.svg;" vertex="1" parent="1">
          <mxGeometry x="410" y="70" width="72" height="90" as="geometry" />
        </mxCell>
      </root>
    </mxGraphModel>
  </diagram>
</mxfile>
